# xmcd
#
# Track frame offsets: 
#        182
#        13732
#        24767
#        43287
#        53885
#        68220
#        79525
#        91785
#        107632
#        121570
#        137270
#        147270
#
# Disc length: 2176 seconds
#
# Revision: 1
# Processed by: cddbd v1.5.2PL0 Copyright (c) Steve Scherf et al.
# Submitted via: ExactAudioCopy v0.99pb5
#
DISCID=8d087e0c
DTITLE=The Cats - Love In Your Eyes
DYEAR=1990
DGENRE=Rock
TTITLE0=Be My Day
TTITLE1=A Clown Never Cries
TTITLE2=If You'll Be My Woman
TTITLE3=Love Is In Your Eyes
TTITLE4=Saterday Mornings And The Western Show
TTITLE5=Let's Dance
TTITLE6=If You're Gonna tangle (In A Love Triangle)
TTITLE7=She's On Her Own
TTITLE8=Time Machine
TTITLE9=One Way Wind
TTITLE10=Moonchild
TTITLE11=Letter
EXTD=
EXTT0=
EXTT1=
EXTT2=
EXTT3=
EXTT4=
EXTT5=
EXTT6=
EXTT7=
EXTT8=
EXTT9=
EXTT10=
EXTT11=
PLAYORDER=
